<?xml version="1.0" standalone="no"?>
<!DOCTYPE svg PUBLIC "-//W3C//DTD SVG 20010904//EN"
 "http://www.w3.org/TR/2001/REC-SVG-20010904/DTD/svg10.dtd">
<svg version="1.0" xmlns="http://www.w3.org/2000/svg"
 width="1024.000000pt" height="1536.000000pt" viewBox="0 0 1024.000000 1536.000000"
 preserveAspectRatio="xMidYMid meet">

<g transform="translate(0.000000,1536.000000) scale(0.100000,-0.100000)"
fill="#000000" stroke="none">
<path d="M0 7680 l0 -7680 5120 0 5120 0 0 7680 0 7680 -5120 0 -5120 0 0
-7680z m5491 4955 c358 -36 718 -121 1033 -247 149 -59 418 -195 531 -269 270
-176 535 -434 687 -669 138 -213 238 -490 238 -662 0 -95 -92 -434 -220 -813
-206 -606 -750 -1975 -785 -1975 -7 0 -46 23 -87 51 -160 111 -269 180 -393
249 -151 85 -511 264 -670 334 -327 144 -1255 469 -1558 545 -395 100 -826
136 -1019 86 -29 -7 -55 -11 -57 -9 -3 2 6 73 18 157 74 500 112 627 313 1027
239 479 568 967 1097 1630 208 260 203 253 130 185 -281 -263 -496 -498 -716
-785 -310 -405 -507 -745 -674 -1164 -40 -102 -75 -184 -76 -182 -4 4 47 441
72 610 66 443 160 871 262 1191 61 189 106 297 159 377 123 185 439 289 1039
341 121 11 537 6 676 -8z m-1696 -3520 c339 -39 663 -125 878 -232 59 -29 110
-61 113 -71 32 -98 111 -236 215 -372 75 -98 94 -141 110 -242 19 -124 -20
-397 -83 -578 -105 -300 -372 -672 -643 -895 -133 -109 -193 -137 -303 -143
-77 -4 -87 -2 -147 27 -53 27 -78 48 -137 119 -137 164 -273 280 -398 337 -54
24 -78 29 -145 30 -92 0 -138 -21 -180 -83 -14 -20 -25 -32 -25 -26 0 41 91
113 230 182 19 9 41 23 48 30 18 16 25 15 18 -3 -10 -27 48 -18 78 11 20 21
26 37 26 71 0 39 -5 49 -47 90 -26 25 -49 40 -51 34 -2 -6 4 -33 13 -61 23
-68 17 -101 -20 -119 -16 -8 -37 -18 -47 -22 -10 -5 -18 -3 -22 6 -3 8 -20 22
-38 31 -50 26 -130 21 -223 -14 -44 -17 -87 -32 -95 -35 -9 -3 -1 -9 20 -16
l35 -11 -40 6 c-108 16 -132 21 -160 36 -58 31 -70 53 -70 132 0 67 3 78 62
196 73 148 241 472 338 655 l70 130 -1 84 c0 79 -2 85 -27 103 -50 37 -52 80
-12 235 48 184 96 357 101 362 28 31 354 40 559 16z m2234 -780 c99 -54 184
-171 212 -291 16 -74 14 -213 -6 -294 -10 -40 -42 -120 -71 -178 -29 -58 -51
-109 -48 -114 10 -16 -72 -125 -160 -214 -108 -107 -190 -154 -268 -154 -49 0
-80 11 -106 37 -22 21 -34 4 -27 -35 16 -86 74 -142 155 -150 74 -7 142 31
250 137 95 93 154 175 203 279 l32 67 7 -76 c12 -137 84 -301 182 -420 l53
-64 6 -155 c9 -229 33 -345 108 -538 16 -40 29 -77 29 -82 0 -14 -175 -167
-308 -268 -192 -147 -611 -444 -827 -587 -680 -450 -918 -605 -923 -600 -3 3
-14 43 -23 88 -24 118 -70 230 -150 362 -39 64 -69 123 -67 132 2 11 47 36
123 68 283 121 512 286 685 492 169 201 310 449 350 613 27 109 36 297 21 415
-6 50 -28 187 -49 305 -35 209 -36 222 -36 470 0 234 1 262 22 334 61 218 194
377 367 439 77 27 194 19 264 -18z m-2953 -1601 c21 -18 108 -69 193 -114 86
-46 207 -116 270 -156 175 -114 263 -140 431 -131 104 6 169 20 228 51 62 32
45 14 -38 -40 -191 -125 -354 -187 -529 -201 -147 -11 -230 29 -276 134 -27
61 -46 69 -134 59 l-59 -7 -14 38 c-28 70 -31 124 -8 161 20 33 22 34 80 30
74 -4 62 11 -16 21 -99 13 -189 62 -219 121 -20 38 -19 94 2 137 l17 36 17
-54 c12 -38 29 -64 55 -85z m102 -589 c-4 -105 -23 -155 -119 -303 -116 -179
-155 -306 -131 -432 17 -91 86 -241 138 -297 24 -26 44 -48 44 -49 0 -1 -18 3
-40 8 -117 30 -230 230 -230 409 0 122 45 233 172 421 83 122 148 263 148 321
0 12 4 33 8 47 7 25 7 25 10 -5 2 -16 2 -70 0 -120z m3483 -257 c25 -62 188
-295 281 -403 162 -188 346 -356 626 -574 266 -207 383 -305 442 -373 l32 -38
-111 0 c-281 0 -569 -63 -871 -190 -351 -147 -640 -305 -1270 -695 -722 -447
-1277 -668 -1940 -770 -138 -22 -494 -32 -505 -16 -16 28 229 479 400 737 193
290 488 677 596 781 24 23 114 84 199 136 595 360 871 534 1210 761 234 156
531 378 735 549 83 69 153 126 156 126 4 1 12 -13 20 -31z m-3581 -78 c-6 -11
-13 -20 -16 -20 -2 0 0 9 6 20 6 11 13 20 16 20 2 0 0 -9 -6 -20z m-64 -137
c-8 -15 -15 -25 -16 -21 0 12 23 58 27 54 3 -2 -2 -17 -11 -33z m-53 -293 c3
-38 1 -57 -3 -45 -8 19 -14 123 -6 114 2 -2 6 -33 9 -69z"/>
<path d="M5603 12042 c-455 -326 -947 -788 -1299 -1219 -242 -297 -432 -578
-543 -803 -34 -69 -55 -117 -49 -106 7 10 48 72 90 137 133 205 379 514 648
814 219 244 995 1013 1225 1212 33 29 58 52 55 52 -3 0 -60 -39 -127 -87z"/>
<path d="M6775 11731 c-151 -124 -480 -384 -680 -537 -388 -296 -748 -569
-1053 -797 -166 -125 -394 -298 -505 -384 -111 -87 -292 -226 -402 -311 -206
-158 -246 -192 -185 -153 19 12 96 58 170 103 211 128 596 377 805 520 464
319 1095 819 1445 1143 126 117 490 475 481 474 -3 0 -37 -26 -76 -58z"/>
<path d="M7377 11158 c-187 -274 -497 -611 -845 -921 -327 -289 -954 -770
-1327 -1017 -93 -62 -172 -114 -175 -117 -11 -10 46 15 215 97 763 367 1448
937 1922 1600 92 129 283 440 271 440 -3 0 -30 -37 -61 -82z"/>
<path d="M7508 10250 c-211 -324 -737 -837 -1117 -1091 -111 -74 -324 -185
-458 -240 -46 -18 -81 -34 -80 -35 7 -7 390 101 468 132 291 117 615 405 939
834 143 190 323 472 309 484 -2 2 -30 -36 -61 -84z"/>
<path d="M3441 8650 c-147 -39 -170 -74 -101 -153 22 -25 72 -67 110 -92 38
-26 72 -51 76 -56 6 -11 -54 -39 -88 -40 -41 -1 32 -28 78 -29 l41 0 6 -52
c12 -101 70 -137 123 -76 16 19 36 44 45 58 l16 24 98 -37 c108 -41 199 -52
174 -20 -13 15 -12 16 9 11 41 -11 23 7 -64 61 -99 63 -229 115 -330 132 -60
10 -78 19 -119 54 l-49 43 55 12 c30 7 99 14 154 17 153 8 254 -14 458 -97 94
-38 173 -67 176 -65 9 10 -132 135 -217 192 -45 30 -113 66 -150 79 -158 55
-366 69 -501 34z m225 -402 c3 -12 -1 -27 -12 -39 -17 -19 -19 -19 -31 -3 -13
18 -17 56 -7 66 11 11 43 -5 50 -24z"/>
<path d="M5845 8196 c-38 -17 -107 -91 -135 -146 -35 -68 -36 -133 -6 -219 44
-124 33 -196 -36 -251 -35 -27 -55 -88 -39 -118 27 -51 103 -39 173 26 59 55
87 106 95 171 7 62 -9 109 -63 191 -50 76 -61 114 -45 163 16 48 82 107 120
107 66 0 141 -87 167 -195 12 -50 12 -50 23 -22 35 88 -21 232 -113 288 -36
22 -97 24 -141 5z"/>
<path d="M6045 7378 c-78 -105 -94 -131 -55 -88 42 47 123 160 118 165 -2 2
-31 -32 -63 -77z"/>
</g>
</svg>
